<svg xmlns="http://www.w3.org/2000/svg" xmlns:xlink="http://www.w3.org/1999/xlink" width="519.135" height="43.927" viewBox="0 0 519.135 43.927">
  <defs>
    <clipPath id="clip-path">
      <rect id="Rectangle_260" data-name="Rectangle 260" width="519.135" height="43.927" fill="#fdb851" stroke="#fdb851" stroke-width="3"/>
    </clipPath>
  </defs>
  <g id="Group_181" data-name="Group 181" transform="translate(0 0)">
    <g id="Group_180" data-name="Group 180" transform="translate(0 0)" clip-path="url(#clip-path)">
      <path id="Path_22" data-name="Path 22" d="M444.442,25.317a5.52,5.52,0,0,1-5.168,3.184q-13.89.256-27.775.465-19.676.31-39.352.6c-12.924.184-25.85.3-38.771.531-23.147.411-46.3.738-69.435,1.385-15.8.439-31.589,1.311-47.375,2.085-12.808.628-25.613,1.305-38.4,2.137-8.94.583-17.864,1.379-26.77,2.234q-16.807,1.609-33.572,3.5c-5.059.565-10.069,1.432-15.1,2.155-.833.12-1.671.215-2.6.333a5.693,5.693,0,0,1-.438-1c-.632-3.162-.54-3.356,3.114-4.128,20.164-4.261,40.21-8.94,60.689-12.122,17.435-2.711,34.936-5.077,52.54-6.909,12.912-1.341,25.8-2.823,38.72-4.118,12.059-1.209,24.143-2.264,36.217-3.374,8.623-.794,17.244-1.63,25.877-2.336,7.2-.587,14.406-1.117,21.622-1.49,10.776-.555,21.559-1.039,32.347-1.391s21.6-.5,32.405-.754c7.131-.17,14.26-.383,21.4-.78-9.594-.2-19.186-.551-28.778-.583-17.556-.06-35.115-.044-52.671.152-14.558.162-29.117.517-43.668.986q-23.563.761-47.109,1.907-31.34,1.516-62.657,3.32c-15.106.868-30.194,1.943-45.29,2.943-11.631.77-23.266,1.488-34.885,2.366-14.595,1.1-29.175,2.342-43.762,3.525-10.27.832-20.552,1.592-30.809,2.522-10.926.99-21.83,2.147-32.744,3.226-.555.056-1.119.052-1.957.088C.184,24.8.09,23.727,0,22.7c2.351-1.574,5.078-1.556,7.579-1.831,14.144-1.556,28.3-3.076,42.476-4.4,14.563-1.357,29.155-2.508,43.743-3.681,9.308-.748,18.626-1.405,27.945-2.041q20.613-1.4,41.236-2.717c17.12-1.073,34.238-2.157,51.368-3.09C228.4,4.181,242.464,3.577,256.528,3c17.149-.7,34.3-1.4,51.458-1.891,16.776-.475,33.56-.75,50.344-.972,12.432-.164,24.869-.15,37.3-.128,7.332.014,14.672.056,21.995.345,10.5.413,20.985,1.017,31.468,1.63,7.311.425,14.645.768,21.9,1.562,14.716,1.608,29.388,3.485,44.07,5.289a38.962,38.962,0,0,1,4.068.93c-.332,2.444-3.289,4.535-5.926,4.275-2.676-.265-5.323-.786-8-.974-7.2-.511-14.413-1.021-21.634-1.319-13-.537-26.015-1.061-39.028-1.321-9.054-.18-18.12.03-27.177.174q-16.483.265-32.96.722c-11.565.337-23.14.6-34.679,1.269q-23.952,1.389-47.85,3.374-28.5,2.367-56.93,5.225c-17.045,1.684-34.078,3.481-51.068,5.5-10.873,1.291-21.658,3.072-32.48,4.637a1.453,1.453,0,0,0-1,.517c2.485-.164,4.974-.281,7.451-.5,16.6-1.456,33.26-2.326,49.937-2.941,15.706-.581,31.4-1.319,47.116-1.784,12.435-.369,24.881-.457,37.323-.618q21.856-.28,43.709-.463,33.577-.277,67.154-.489c8.584-.066,17.166-.192,25.748-.227,1.7-.006,3.39.289,5.6.493" transform="translate(0 0)" fill="#fdb851" stroke="#fdb851" stroke-width="3"/>
    </g>
  </g>
</svg>
